<svg width="70" height="70" viewBox="0 0 70 70" fill="none" xmlns="http://www.w3.org/2000/svg">
<g filter="url(#filter0_d_790_1778)">
<circle cx="34.8001" cy="21.7999" r="16.7999" fill="#1A202C"/>
</g>
<path d="M34.5 3C24.8349 3 17 11.0588 17 21C17 30.9413 24.8349 39 34.5 39C44.1651 39 52 30.9413 52 21C52 11.0588 44.1651 3 34.5 3ZM38.6453 15.4387H36.0148C35.7031 15.4387 35.3568 15.8606 35.3568 16.4212V18.375H38.6471L38.1495 21.1613H35.3568V29.5256H32.2523V21.1613H29.4359V18.375H32.2523V16.7362C32.2523 14.385 33.8383 12.4744 36.0148 12.4744H38.6453V15.4387Z" fill="white"/>
<defs>
<filter id="filter0_d_790_1778" x="0.00012207" y="0" width="69.5999" height="69.5999" filterUnits="userSpaceOnUse" color-interpolation-filters="sRGB">
<feFlood flood-opacity="0" result="BackgroundImageFix"/>
<feColorMatrix in="SourceAlpha" type="matrix" values="0 0 0 0 0 0 0 0 0 0 0 0 0 0 0 0 0 0 127 0" result="hardAlpha"/>
<feOffset dy="13"/>
<feGaussianBlur stdDeviation="9"/>
<feColorMatrix type="matrix" values="0 0 0 0 0.0658854 0 0 0 0 0.0730469 0 0 0 0 0.1375 0 0 0 0.08 0"/>
<feBlend mode="normal" in2="BackgroundImageFix" result="effect1_dropShadow_790_1778"/>
<feBlend mode="normal" in="SourceGraphic" in2="effect1_dropShadow_790_1778" result="shape"/>
</filter>
</defs>
</svg>
